<svg t="1587527304649" class="icon" viewBox="0 0 1024 1024" version="1.1" xmlns="http://www.w3.org/2000/svg" p-id="2669" width="200" height="200"><path d="M832 992H192c-70.4 0-128-57.6-128-129.6V315.2c0-70.4 57.6-129.6 128-129.6h640c70.4 0 128 57.6 128 129.6v547.2c0 72-57.6 129.6-128 129.6z" fill="#bfbfbf" p-id="2670" data-spm-anchor-id="a313x.7781069.0.i13" class="selected"></path><path d="M536 934.4h-256c-70.4 0-128-57.6-128-129.6V161.6c0-70.4 57.6-129.6 128-129.6h256c70.4 0 128 57.6 128 129.6v644.8c0 70.4-57.6 128-128 128z" fill="#4E8DF6" p-id="2671"></path><path d="M438.4 219.2h-160c-17.6 0-32-14.4-32-32s14.4-32 32-32h160c17.6 0 32 14.4 32 32s-14.4 32-32 32zM534.4 361.6h-256c-17.6 0-32-14.4-32-32s14.4-32 32-32h256c17.6 0 32 14.4 32 32s-14.4 32-32 32z" fill="#FFFFFF" p-id="2672"></path><path d="M432 467.2c-75.2 94.4-60.8 235.2 32 312s232 62.4 308.8-32 60.8-235.2-33.6-312c-96-80-232-65.6-307.2 32z m296 243.2c-57.6 70.4-158.4 81.6-228.8 24s-81.6-161.6-24-230.4S633.6 422.4 704 480s80 160 24 230.4z" fill="#ffffff" p-id="2673" data-spm-anchor-id="a313x.7781069.0.i11" class=""></path><path d="M907.2 854.4c9.6 8 11.2 22.4 0 32l-28.8 30.4c-8 9.6-22.4 11.2-32 0L704 780.8c-9.6-8-11.2-22.4 0-32l28.8-30.4c8-9.6 22.4-11.2 32 0l142.4 136zM515.2 681.6c-8 4.8-14.4 1.6-20.8-4.8-1.6-1.6-32-54.4-8-113.6 9.6-22.4 25.6-43.2 52.8-62.4 6.4-4.8 14.4-3.2 19.2 3.2 4.8 6.4 3.2 14.4-3.2 19.2-24 16-36.8 35.2-43.2 49.6-17.6 40 0 80 4.8 89.6 1.6 0 1.6 1.6 1.6 1.6 1.6 4.8 1.6 8 0 12.8 0 0 0 3.2-3.2 4.8z" fill="#ffffff" p-id="2674" data-spm-anchor-id="a313x.7781069.0.i12" class=""></path></svg>
